# xmcd
#
# Track frame offsets:
#	150
#	13964
#	38036
#	54255
#	70618
#	91601
#	107733
#	126727
#	140532
#	156889
#	174968
#	188850
#	203215
#	215254
#	234087
#	253671
#	274386
#	292124
#	305948
#
# Disc length: 4307 seconds
#
# Revision: 0
# Processed by: cddbd v1.5.2PL0 Copyright (c) Steve Scherf et al.
# Submitted via: EasyCDDAExtractor 10.2.0.1
#
DISCID=1910d113
DTITLE=Various Artist - Linedance June2007
DYEAR=1900
DGENRE=
TTITLE0=south sixty  - babys got my number 
TTITLE1=t wynette, elton john  - champagne on ice
TTITLE2=leanne womack - change of heart 
TTITLE3=craig morgan  - cowboy and clown
TTITLE4=scissors - dont feel like dancing
TTITLE5=young divas - hard for the money 
TTITLE6=modern talking  - heart of an angel 
TTITLE7=the carpenters - hush
TTITLE8=westlife - ideal fate
TTITLE9=lutricia mcneal - if i could fly away
TTITLE10=lena phillipson - it hurts
TTITLE11=led loader and the barrels - jambalaya
TTITLE12=sanne - make love to me
TTITLE13=keith urban - memories 
TTITLE14=collin raye - not forgotton
TTITLE15=leanne rimes - please remember
TTITLE16=mousset and roachford - pop muzak
TTITLE17=scooter lee - sweet sweet smile 
TTITLE18=the chosen one  - the chosen one
EXTD=
EXTT0=
EXTT1=
EXTT2=
EXTT3=
EXTT4=
EXTT5=
EXTT6=
EXTT7=
EXTT8=
EXTT9=
EXTT10=
EXTT11=
EXTT12=
EXTT13=
EXTT14=
EXTT15=
EXTT16=
EXTT17=
EXTT18=
PLAYORDER=
